<?xml version="1.0" encoding="UTF-8" standalone="no"?>
<svg
   width="5868.4258"
   height="2999.6831"
   viewBox="0 0 5868.4257 2999.683"
   version="1.1"
   id="svg833"
   sodipodi:docname="flax-and-teal-foreground.svg"
   inkscape:version="1.2.2 (b0a8486541, 2022-12-01)"
   inkscape:export-filename="./flax-and-teal-foreground.png"
   inkscape:export-xdpi="29.991758"
   inkscape:export-ydpi="29.991758"
   xml:space="preserve"
   xmlns:inkscape="http://www.inkscape.org/namespaces/inkscape"
   xmlns:sodipodi="http://sodipodi.sourceforge.net/DTD/sodipodi-0.dtd"
   xmlns="http://www.w3.org/2000/svg"
   xmlns:svg="http://www.w3.org/2000/svg"
   xmlns:rdf="http://www.w3.org/1999/02/22-rdf-syntax-ns#"
   xmlns:cc="http://creativecommons.org/ns#"
   xmlns:dc="http://purl.org/dc/elements/1.1/"><metadata
     id="metadata837"><rdf:RDF><cc:Work
         rdf:about=""><dc:format>image/svg+xml</dc:format><dc:type
           rdf:resource="http://purl.org/dc/dcmitype/StillImage" /><dc:title>Rectangle</dc:title></cc:Work></rdf:RDF></metadata><sodipodi:namedview
     pagecolor="#3d341d"
     bordercolor="#666666"
     borderopacity="1"
     objecttolerance="10"
     gridtolerance="10"
     guidetolerance="10"
     inkscape:pageopacity="0"
     inkscape:pageshadow="2"
     inkscape:window-width="2256"
     inkscape:window-height="1435"
     id="namedview835"
     showgrid="false"
     inkscape:zoom="0.15480153"
     inkscape:cx="2797.13"
     inkscape:cy="817.17539"
     inkscape:window-x="0"
     inkscape:window-y="0"
     inkscape:window-maximized="1"
     inkscape:current-layer="Page-1"
     fit-margin-top="0"
     fit-margin-left="0"
     fit-margin-right="0"
     fit-margin-bottom="0"
     inkscape:document-rotation="0"
     inkscape:pagecheckerboard="0"
     inkscape:showpageshadow="2"
     inkscape:deskcolor="#3d341d" /><!-- Generator: Sketch 50.2 (55047) - http://www.bohemiancoding.com/sketch --><title
     id="title815">Rectangle</title><desc
     id="desc817">Created with Sketch.</desc><defs
     id="defs819"><clipPath
       clipPathUnits="userSpaceOnUse"
       id="clipPath1517"><rect
         style="fill:#40e0d0;stroke:#999999;stroke-width:0.98726"
         id="rect1519"
         width="2790.7263"
         height="1968.2482"
         x="-734.88806"
         y="-747.64355"
         rx="200"
         ry="200" /></clipPath></defs><g
     id="Page-1"
     style="fill:none;fill-rule:evenodd;stroke:none;stroke-width:1"
     transform="translate(3194.1863,1358.6484)"><rect
       style="fill:#b39b53;fill-opacity:1;stroke-width:2.98556"
       id="rect2484"
       width="1277.7788"
       height="222.00363"
       x="1311.405"
       y="-1035.0426" /><text
       xml:space="preserve"
       style="font-style:normal;font-variant:normal;font-weight:normal;font-stretch:normal;font-size:40px;line-height:1.25;font-family:'League Spartan';-inkscape-font-specification:'League Spartan';letter-spacing:0px;word-spacing:0px;fill:#000000;fill-opacity:1;fill-rule:evenodd;stroke:none;stroke-width:0.123421"
       x="1322.9363"
       y="723.14484"
       id="text1205"><tspan
         sodipodi:role="line"
         id="tspan1203"
         x="1322.9363"
         y="723.14484"
         style="stroke-width:0.123421">on</tspan></text><text
       xml:space="preserve"
       style="font-style:normal;font-variant:normal;font-weight:normal;font-stretch:normal;font-size:166.882px;line-height:1.25;font-family:'League Spartan';-inkscape-font-specification:'League Spartan';text-align:end;letter-spacing:0px;word-spacing:0px;text-anchor:end;fill:#000000;fill-opacity:1;fill-rule:evenodd;stroke:none;stroke-width:0.123421"
       x="2662.314"
       y="1430.2238"
       id="text1209"><tspan
         sodipodi:role="line"
         x="2662.314"
         y="1430.2238"
         style="font-style:normal;font-variant:normal;font-weight:normal;font-stretch:normal;font-family:'League Spartan';-inkscape-font-specification:'League Spartan';text-align:end;text-anchor:end;fill:#ffffff;stroke-width:0.123421"
         id="tspan594">Stretching Arches with ORM Syntax</tspan><tspan
         sodipodi:role="line"
         x="2662.3137"
         y="1638.8263"
         style="font-style:normal;font-variant:normal;font-weight:normal;font-stretch:normal;font-family:'League Spartan';-inkscape-font-specification:'League Spartan';text-align:end;text-anchor:end;fill:#ffffff;stroke-width:0.123421"
         id="tspan598">Dashboards, Permissions &amp; Extraction</tspan></text><text
       xml:space="preserve"
       style="font-style:normal;font-variant:normal;font-weight:normal;font-stretch:normal;font-size:166.882px;line-height:1.25;font-family:'League Spartan';-inkscape-font-specification:'League Spartan';text-align:end;letter-spacing:0px;word-spacing:0px;text-anchor:end;fill:#000000;fill-opacity:1;fill-rule:evenodd;stroke:none;stroke-width:0.123421"
       x="2683.2512"
       y="1202.1559"
       id="text1209-5"><tspan
         sodipodi:role="line"
         x="2683.2512"
         y="1202.1559"
         style="font-style:normal;font-variant:normal;font-weight:normal;font-stretch:normal;font-family:'League Spartan';-inkscape-font-specification:'League Spartan';text-align:end;text-anchor:end;fill:#ffffff;stroke-width:0.123421"
         id="tspan1211-2">DEVOPS // DATA SCIENCE // WEB</tspan></text><path
       inkscape:connector-curvature="0"
       style="fill:#b39b53;fill-opacity:1;stroke:none;stroke-width:6.16852;stroke-miterlimit:4;stroke-dasharray:none"
       d="m -2465.5251,484.79635 c -1.515,2.20435 -3.0148,4.52542 -7.1806,8.09612 -10.7716,9.23258 -32.5744,22.57435 -75.9258,37.80635 -27.9585,9.82344 -54.8421,25.12269 -74.7691,40.91463 -9.9636,7.89583 -18.194,15.94327 -23.9513,23.56565 -5.7571,7.62238 -9.2107,14.87327 -8.8672,21.68621 1.0764,21.29183 11.3875,39.98951 28.1438,56.64919 16.7563,16.65954 39.9744,31.42899 67.4922,45.37241 43.368,21.97467 122.8033,44.33807 196.718,62.38396 59.7028,14.57574 101.3964,22.77911 131.2979,28.79446 -26.3962,-0.61324 -53.1171,-1.24752 -80.4076,-1.85536 -29.9489,-0.68298 -60.1883,-1.25542 -90.6241,-1.46992 -7.5032,-0.0526 -14.9266,0.0132 -22.385,0.0263 -21.3032,-0.0132 -42.4712,0.1316 -63.3479,0.60271 -31.7429,-1.35504 -63.9346,-4.11103 -94.3349,-8.89123 h -0.026 c -71.4448,-27.31703 -111.8577,-59.01263 -142.6229,-114.31047 -8.4814,-15.24318 -10.6717,-29.43611 -8.2168,-42.98685 2.4552,-13.55061 9.6618,-26.53286 20.4092,-38.84239 21.4945,-24.61908 57.0919,-46.31845 95.0097,-64.07063 70.6704,-33.08642 143.2269,-50.96112 153.5871,-53.46919 z m -155.6829,38.11954 c -2.6385,2.23791 -1.2817,1.84957 -5.6624,4.89139 -14.1786,9.84621 -38.1611,23.26865 -77.1547,37.22799 -17.3789,6.22142 -30.9895,23.27404 -41.3484,41.15558 -10.359,17.88153 -17.4003,36.78569 -20.7947,47.37239 -7.3507,22.92557 -2.6641,47.59004 13.084,70.02227 15.7481,22.43236 42.4471,42.76827 79.492,57.90223 24.689,10.08624 53.8533,16.53401 84.6003,21.20418 6.9557,2.76679 14.3046,5.46331 21.8549,8.14442 -32.5174,2.19343 -63.6536,5.45923 -92.7447,10.16849 -32.2184,-7.51908 -62.4832,-16.58783 -88.528,-26.91501 -27.627,-17.25423 -49.2638,-37.762 -63.5886,-62.67322 -17.6805,-30.74653 -13.8803,-58.68246 1.8554,-84.4797 15.7355,-25.79725 43.7562,-49.06076 74.1667,-68.408 49.3123,-31.3728 95.5648,-48.7419 114.7682,-55.61301 z m -162.5742,61.61296 c -11.4069,9.73106 -24.4373,21.46184 -36.0473,36.81833 -13.2148,17.47912 -24.16,38.12428 -26.915,60.72126 -2.7549,22.59712 2.8742,47.08709 22.2163,71.49219 12.2531,15.46032 33.478,28.68326 59.4926,40.28824 -3.4717,-1.28174 -8.2101,-2.03328 -11.5661,-3.34936 -0.026,-0.0117 -0.066,-0.0124 -0.1052,-0.0263 -7.9301,-3.16526 -15.4564,-6.47224 -22.4573,-9.90345 -10.4985,-5.14642 -19.8706,-10.57446 -27.8306,-16.26463 -5.3033,-3.78981 -9.9719,-7.70371 -13.9515,-11.71052 -1.9905,-2.00551 -3.8158,-4.03997 -5.4455,-6.09627 -9.9575,-12.56417 -24.4635,-22.83635 -41.9267,-31.42083 -1.8716,-42.76222 30.3897,-79.07483 64.2153,-104.81667 14.5471,-11.07057 28.2157,-18.96285 40.3122,-25.73434 z m -378.3037,95.46736 c 55.007,0.1566 121.363,3.10591 179.7062,13.44547 34.5693,6.12641 66.086,15.0325 90.8895,27.13188 3.0747,1.50176 6.0056,3.0734 8.8671,4.67452 1.6301,0.91459 3.2163,1.84589 4.771,2.79521 2.4711,1.50111 4.8828,3.01577 7.1564,4.60228 1.9779,1.38991 3.7961,2.85548 5.6144,4.31316 1.8872,1.50176 3.86,2.95497 5.566,4.53003 0.2224,0.2066 0.4317,0.41847 0.6501,0.62639 2.7971,2.63611 5.383,5.37105 7.6385,8.21667 14.2642,17.99826 40.0204,33.01878 72.2391,45.87839 16.5079,6.58791 34.7561,12.59009 54.0469,18.02366 9.5351,4.71452 19.6965,9.0669 30.216,13.22859 -30.3545,6.64332 -57.7735,15.28977 -81.2751,26.48128 -9.057,-3.48556 -17.6207,-7.27629 -25.6861,-11.34916 -0.1053,-0.0526 -0.2053,-0.11843 -0.3132,-0.16844 -5.9939,-3.05761 -11.7484,-6.21589 -17.0598,-9.61421 -4.7515,-3.03984 -9.1412,-6.02047 -13.4213,-8.98768 l -0.7225,-0.50664 h -0.053 c -34.0496,-23.70133 -52.8577,-44.3411 -70.4079,-62.07064 -19.8561,-20.05904 -38.3863,-36.44684 -74.7932,-48.02286 -63.0075,-20.03351 -137.1873,-28.91013 -196.0434,-32.84258 6.6684,-0.0658 5.3216,-0.4119 12.4093,-0.38558 z m -13.4938,118.28623 c 62.3578,-0.72904 138.9549,3.1871 224.4041,17.58992 46.0347,7.7595 83.5559,11.62353 115.8284,13.44546 4.119,2.85022 8.3486,5.72176 12.9636,8.67449 1.5737,1.0067 3.2851,1.92221 4.9156,2.89154 -71.7499,-4.78033 -134.2966,-9.56868 -185.4895,-17.71047 -0.012,-0.002 -0.039,0.002 -0.053,0 -53.2417,-19.74729 -125.8891,-23.88793 -191.1758,-23.6379 7.393,-0.22634 10.7439,-1.16066 18.6019,-1.25278 z m 614.6834,8.24074 c 8.0726,0.91327 16.1944,1.74877 24.3609,2.48189 -5.0427,0.23818 -10.0233,0.51322 -15.0117,0.79483 -3.2672,-1.08566 -6.1588,-2.18566 -9.3492,-3.27698 z m 157.2733,6.40947 c 19.8911,0.13949 39.7655,0.59087 59.6611,0.96328 12.4667,0.23424 24.9933,0.34478 37.3725,0.62639 32.9715,0.75273 65.3523,1.55519 96.8652,2.21672 2.8756,0.0658 5.9606,0.15923 8.8189,0.21713 v -0.0921 c 24.7612,0.48953 49.3115,0.94748 72.3838,0.98828 54.5664,0.0921 79.2418,0.10527 93.1301,0.55401 -13.0171,3.38278 -32.0259,8.35813 -47.541,16.62612 -8.0091,4.26815 -15.0648,9.33667 -19.6621,15.71035 -4.5972,6.37381 -6.5328,14.27675 -4.0239,22.81872 1.3167,4.48305 0.7185,6.3892 -0.4343,7.54198 -1.1515,1.15277 -3.9617,2.04617 -8.3131,1.92773 -8.0432,-0.23029 -20.4948,-3.84784 -33.3968,-8.60224 -5.7425,-2.12881 -11.5339,-4.48463 -17.2043,-6.91545 -0.6619,-0.28293 -1.3441,-0.53559 -2,-0.81984 -6.6209,-2.87403 -13.0221,-5.79689 -18.7224,-8.50578 v -2.74691 l -3.012,1.37345 c -11.2017,-5.4079 -19.8653,-9.93161 -19.9031,-9.95161 l -0.053,-0.0263 -0.579,-0.28951 -0.7225,-0.0526 c 0,0 -9.6825,-0.31056 -24.7946,-0.62639 -22.5829,-0.54612 -58.4085,-0.95012 -110.5995,0.3132 -14.908,0.35925 -30.1576,0.81194 -46.4567,1.51808 -3.965,0.17239 -7.969,0.40663 -11.9997,0.6027 -16.4536,0.79747 -33.3317,1.81062 -50.6012,3.06011 -3.7607,0.27241 -7.3938,0.47506 -11.1804,0.77115 -3.7735,0.29477 -7.5545,0.64482 -11.3492,0.96328 -9.6466,0.81326 -19.3051,1.71573 -29.0352,2.69875 -3.8229,0.38557 -7.6181,0.79089 -11.4457,1.20409 -9.2275,0.9975 -18.4271,2.085 -27.6377,3.25304 -4.2663,0.54085 -8.5181,1.03565 -12.7709,1.6144 -12.5307,1.70719 -24.9964,3.55189 -37.3002,5.61425 -0.3435,0.0526 -0.6935,0.10527 -1.037,0.16844 0,0 -0.026,0 -0.026,0 -9.7513,1.64388 -19.4974,3.41884 -29.2041,5.30104 -1.4473,0.28162 -2.8687,0.60402 -4.3132,0.8909 -8.6809,1.71824 -17.2958,3.53557 -25.8307,5.44567 -0.1434,0.0263 -0.2895,0.0658 -0.4342,0.0921 -0.3066,0.0658 -0.608,0.14738 -0.9159,0.21713 -9.5012,2.14026 -18.8283,4.41554 -28.0233,6.79491 -5.6144,1.45294 -11.2598,2.86746 -16.7226,4.40962 l -0.2882,0.079 -0.2658,0.14475 c -0.2987,0.14739 -0.5698,0.30925 -0.8672,0.45795 -3.1902,0.91196 -6.5074,1.7568 -9.6383,2.69862 -5.497,1.64863 -10.8877,3.34212 -16.1683,5.08431 -2.3556,0.78168 -4.9215,1.46386 -7.2288,2.26502 -1.3312,0.46189 -2.4683,1.00143 -3.783,1.46978 -8.1377,2.88364 -15.9514,5.87098 -23.3728,9.01176 -10.7416,4.5578 -20.6938,9.35405 -29.5897,14.48165 -0.9422,0.54349 -1.8033,1.11329 -2.7229,1.66257 -3.5031,2.09578 -6.8499,4.23736 -9.9997,6.43355 -1.0857,0.75668 -2.1391,1.52045 -3.1806,2.2891 -2.8511,2.10539 -5.494,4.28263 -7.9999,6.48185 -0.9106,0.79878 -1.8835,1.57374 -2.7468,2.38542 -3.139,2.953 -6.0532,5.95902 -8.53,9.08414 v 0.0263 c -0.9698,1.22384 -2.2071,2.33266 -3.2769,3.51807 -1.4689,1.62691 -2.8314,3.28764 -4.4819,4.84322 -1.2515,1.18172 -2.7214,2.27989 -4.0721,3.4216 -1.7928,1.51058 -3.508,3.06551 -5.4697,4.50595 -1.1067,0.81589 -2.3595,1.56796 -3.5181,2.36134 -2.5332,1.72864 -5.0864,3.43529 -7.8552,5.0601 -0.8119,0.47769 -1.6991,0.92906 -2.5302,1.39754 -3.2171,1.80983 -6.5067,3.57281 -9.9996,5.25288 -16.1978,7.80372 -35.2004,14.25622 -56.071,19.42119 -43.4688,10.7578 -94.5952,16.2333 -143.3939,18.7465 -28.026,1.4436 -49.7704,0.633 -74.3837,0.5541 57.556,-4.1874 127.4926,-12.7992 187.8025,-31.97517 36.4071,-11.5759 54.9349,-27.96172 74.7934,-48.023 17.5332,-17.7127 36.3095,-38.35023 70.2873,-62.02248 h 0.092 l 0.7225,-0.50664 c 4.2943,-2.97813 8.6989,-5.98336 13.4695,-9.03584 h 0.026 c 5.1062,-3.26685 10.6286,-6.32762 16.337,-9.27693 1.9437,-1.00407 3.9198,-1.99722 5.9275,-2.96378 0.066,-0.0263 0.1329,-0.0395 0.1922,-0.079 27.4444,-13.21031 60.9045,-22.84794 98.3348,-29.90288 8.064,-1.51426 16.4175,-2.82456 24.8428,-4.09629 2.667,-0.40531 5.3227,-0.82247 8.0238,-1.2041 9.138,-1.28436 18.4047,-2.48346 27.9031,-3.51806 21.1788,-2.30673 43.2028,-4.02405 65.8295,-5.27696 7.7766,-0.4369 15.6709,-0.76589 23.5658,-1.10803 9.7985,-0.404 19.6251,-0.8001 29.5895,-1.06066 26.5728,-0.76588 53.6612,-1.03565 80.9859,-0.96459 3.9139,0.0132 7.7904,-0.0263 11.7106,0 z m -283.4628,10.86726 c 1.5767,0.36583 3.1622,0.72509 4.7469,1.08434 -0.4567,0.0921 -0.9186,0.17502 -1.3736,0.26451 -1.1528,-0.43558 -2.2229,-0.91327 -3.3733,-1.34938 z m 399.6285,27.73419 c 22.9686,-0.0263 41.8191,0.24082 54.9624,0.53033 0.053,10e-4 0.1474,-10e-4 0.1921,0 12.8709,0.28556 20.267,0.59349 20.4813,0.6027 0.1843,0.0921 4.4152,2.19948 6.5782,3.27698 2.2254,1.15409 4.4537,2.27607 8.5299,4.28908 -34.3721,16.81009 -49.053,35.02733 -51.5649,38.38458 -0.1184,0.15397 -0.633,0.68166 -0.6988,0.77115 -0.012,-10e-4 -0.5356,-0.0658 -0.554,-0.079 -0.8804,-0.10528 -9.3234,-0.96064 -21.1801,-2.07223 -5.5907,-0.53822 -7.9203,-0.74483 -15.9273,-1.39754 -4.0428,-0.33162 -7.813,-0.60139 -12.4093,-0.93959 -9.0919,-0.67113 -18.9195,-1.27121 -29.8788,-1.87944 -5.5162,-0.3053 -10.5113,-0.57638 -16.4334,-0.84352 -13.7301,-0.62245 -28.3424,-1.03171 -43.7578,-1.30148 -3.0932,-0.0526 -5.671,-0.22897 -8.8191,-0.2645 -0.7225,-0.008 -1.4914,0.007 -2.2169,0 -2.9935,-0.0263 -6.0251,0.0103 -9.06,0 -13.1947,-0.0526 -26.6807,0.10527 -40.4087,0.48163 -3.2468,0.0921 -6.3972,0.11844 -9.6624,0.24082 -3.9939,0.14081 -7.9878,0.3461 -11.9996,0.53033 -5.885,0.27372 -11.7592,0.58823 -17.6623,0.96328 -5.0028,0.31451 -9.9682,0.66718 -14.9634,1.06065 -4.9044,0.38821 -9.7675,0.85669 -14.6502,1.3253 -5.3667,0.51322 -10.7061,1.02249 -16.0238,1.63849 -5.0305,0.58428 -9.9689,1.29358 -14.9392,1.9759 -37.2249,5.11115 -72.5671,12.90171 -101.9735,24.91503 -37.0449,15.13409 -63.7679,35.47001 -79.516,57.9021 -15.7481,22.43235 -20.4106,47.09685 -13.0599,70.02245 3.3941,10.5858 10.4176,29.4665 20.7706,47.3482 10.3529,17.8816 23.9691,34.9339 41.3483,41.1555 38.9936,13.9594 62.9941,27.4058 77.1787,37.2521 4.3549,3.0226 2.981,2.614 5.6144,4.8434 -19.2379,-6.8852 -65.4396,-24.2367 -114.72,-55.5891 -30.4103,-19.3474 -58.4314,-42.5865 -74.1669,-68.3838 -15.7355,-25.7972 -19.5358,-53.7334 -1.8553,-84.47984 14.2861,-24.84331 35.7563,-45.35004 63.2515,-62.60084 l 0.1053,-0.0526 0.2408,-0.11843 c 3.9803,-2.48899 8.0639,-4.92876 12.2647,-7.30103 0.053,-0.0263 0.092,-0.0658 0.1447,-0.0921 4.2936,-2.38687 8.6828,-4.70807 13.2286,-6.96374 5.1279,-1.44544 10.4432,-2.80153 15.7105,-4.16854 3.1571,-0.81852 6.2207,-1.69113 9.4214,-2.48189 8.5321,-2.10933 17.2056,-4.11497 25.9752,-6.02389 0,0 0.026,0 0.026,0 17.5551,-3.821 35.4894,-7.24615 53.3962,-10.26481 0,0 0.026,0 0.026,0 3.4291,-0.57771 6.9574,-1.01723 10.4093,-1.56625 10.3565,-1.6477 20.7253,-3.29672 31.2282,-4.69873 0.026,-0.003 0.053,0.003 0.079,0 12.2263,-1.63126 24.5122,-3.03551 36.7943,-4.36133 1.818,-0.19607 3.6286,-0.46058 5.4458,-0.65008 13.9818,-1.46123 27.945,-2.74375 41.758,-3.85534 0.1053,-0.009 0.2237,-0.0132 0.3369,-0.0263 13.7594,-1.10408 27.356,-2.04196 40.7218,-2.84324 0.1645,-0.01 0.3185,-0.0132 0.483,-0.0263 13.3044,-0.79483 26.3448,-1.46321 39.0352,-1.99985 0.2158,-0.009 0.4105,-0.0132 0.6263,-0.0263 12.6246,-0.53033 24.8557,-0.93564 36.6497,-1.25278 0.026,-7.9e-4 0.053,6.5e-4 0.079,0 23.9228,-0.64087 45.9153,-0.88959 65.0345,-0.91591 z m 97.8771,12.14425 c 10.1719,4.8456 22.474,10.43812 35.0111,15.25266 l -10.0238,6.43355 c -0.3053,0.0526 -49.0371,10.76935 -78.7691,16.96353 0.4408,-0.59875 1.7915,-2.21935 3.3975,-4.02404 0.8132,-0.88037 1.9934,-1.99301 3.0361,-3.03603 1.8129,-1.84365 3.7734,-3.77533 6.5058,-6.12036 0.9712,-0.82905 2.0067,-1.68494 3.0842,-2.55413 1.2423,-1.00012 2.4972,-2.00735 3.9037,-3.06024 1.1975,-0.90143 2.5713,-1.84457 3.8793,-2.771 1.8948,-1.33029 3.7696,-2.64572 5.9275,-4.02391 0.5422,-0.35005 1.1765,-0.7093 1.7348,-1.06066 6.3312,-3.94509 13.6593,-8.0048 22.3129,-11.99976 z m -605.8161,0.67508 c -1.5821,0.95144 -3.2606,1.83747 -4.7951,2.81917 -4.6358,2.96589 -8.9127,5.86374 -13.084,8.74673 -32.2674,1.82246 -69.8041,5.6878 -115.8284,13.44546 -90.2979,15.22082 -166.0244,17.27567 -230.163,15.97551 61.962,-0.45137 128.5218,-4.80164 178.333,-23.27653 0.012,-0.002 0.039,0.002 0.053,0 51.1929,-8.14166 113.7411,-12.92935 185.4893,-17.71034 z m 390.2552,32.48096 c 4.1471,0.0263 8.2438,0.0395 12.2889,0.0921 18.4501,0.27635 36.2376,0.84352 52.336,1.61441 1.2475,0.0658 2.4116,0.13159 3.6383,0.19344 10.8343,0.54349 19.7717,1.17515 29.0356,1.8072 27.7113,1.96669 48.0069,4.03865 51.9023,4.48186 -25.0571,5.31355 -27.6588,5.29829 -59.9503,12.91527 -81.8286,19.30211 -175.201,44.38018 -222.6208,68.408 -27.5182,13.94353 -50.7602,28.71263 -67.5165,45.37233 -16.7563,16.6595 -27.0433,35.3813 -28.1199,56.6732 -0.3434,6.8135 3.1078,14.0639 8.8673,21.6862 5.7595,7.6223 14.0087,15.6216 23.9753,23.5175 19.9332,15.7917 46.835,31.0912 74.7934,40.9147 43.3516,15.232 65.1301,28.5736 75.9017,37.8063 4.1656,3.5706 5.6654,5.8919 7.1806,8.0961 -10.3562,-2.5069 -82.8905,-20.3575 -153.5625,-53.4444 -37.9177,-17.7521 -73.5634,-39.4756 -95.0579,-64.0947 -10.7471,-12.3096 -17.93,-25.2676 -20.385,-38.8183 -2.455,-13.5508 -0.2645,-27.7678 8.2167,-43.0111 30.6358,-55.0652 70.8342,-86.57893 141.7072,-113.87662 24.4055,-3.90496 49.8881,-6.61292 75.4681,-8.24075 13.7904,-0.87774 27.5432,-1.38083 41.1556,-1.73495 4.5013,-0.10528 8.8961,-0.15397 13.3249,-0.21713 9.2681,-0.13949 18.4396,-0.20003 27.421,-0.14476 z m -336.5698,14.81893 c -26.1958,11.59839 -48.4078,24.46208 -60.7214,39.99898 -19.3422,24.4051 -24.9689,48.9194 -22.2163,71.5164 2.7526,22.5969 13.7031,43.2181 26.915,60.6972 11.5943,15.3395 24.6026,27.0667 35.999,36.7942 -12.0737,-6.7622 -25.7255,-14.6181 -40.2399,-25.6619 -33.8604,-25.7642 -66.167,-62.113 -64.2393,-104.93711 17.4876,-8.57605 32.0628,-18.82915 42.0229,-31.39688 14.4081,-18.17933 45.9398,-33.42344 82.48,-47.01089 z"
       id="path3749-4-9" /><path
       style="fill:#b39b53;fill-opacity:1;stroke:none;stroke-width:6.16852;stroke-miterlimit:4;stroke-dasharray:none"
       d="m -1545.8965,484.79464 c 1.5151,2.20435 3.0149,4.52542 7.1805,8.09612 10.7716,9.23258 32.5745,22.57435 75.9259,37.80635 27.9585,9.82344 54.8421,25.12269 74.7692,40.91463 9.9635,7.89583 18.1938,15.94327 23.9512,23.56565 5.7571,7.62238 9.2107,14.87327 8.8673,21.68621 -1.0765,21.29182 -11.3876,39.98951 -28.144,56.64919 -16.7563,16.65954 -39.9743,31.42885 -67.4922,45.37227 -43.3679,21.97467 -122.8031,44.33807 -196.718,62.38397 -59.7028,14.57587 -101.3964,22.77924 -131.2978,28.79446 26.3963,-0.61324 53.117,-1.24621 80.4076,-1.85536 29.9488,-0.68298 60.1883,-1.25542 90.6242,-1.46979 7.5031,-0.0526 14.9264,0.0132 22.3849,0.0263 21.3032,-0.0132 42.4712,0.1316 63.3479,0.60271 31.7428,-1.35517 63.9346,-4.11117 94.3349,-8.89136 h 0.026 c 71.4448,-27.31703 111.8577,-59.01263 142.6229,-114.31047 8.4814,-15.24318 10.6717,-29.43611 8.2168,-42.98685 -2.4552,-13.55061 -9.6618,-26.53286 -20.4092,-38.8424 -21.4945,-24.61907 -57.0919,-46.31844 -95.0097,-64.07062 -70.6697,-33.08577 -143.2262,-50.96046 -153.5865,-53.46853 z m 155.6828,38.11954 c 2.6386,2.23778 1.2817,1.84957 5.6625,4.89139 14.1786,9.84621 38.1612,23.26865 77.1548,37.22799 17.3788,6.22142 30.9893,23.27404 41.3483,41.15557 10.359,17.88154 17.4003,36.7857 20.7947,47.37226 7.3507,22.92558 2.664,47.59018 -13.0841,70.02241 -15.7481,22.43236 -42.447,42.76814 -79.492,57.9021 -24.6888,10.08624 -53.8532,16.534 -84.6003,21.20431 -6.9556,2.76666 -14.3045,5.4633 -21.8548,8.14442 32.5175,2.19343 63.6536,5.45923 92.7447,10.16836 32.2184,-7.51895 62.4832,-16.58783 88.528,-26.91502 27.6269,-17.25422 49.2638,-37.76187 63.5886,-62.67308 17.6806,-30.74653 13.8802,-58.68259 -1.8554,-84.47984 -15.7355,-25.79724 -43.7563,-49.06062 -74.1669,-68.40786 -49.3121,-31.37293 -95.5646,-48.74203 -114.7681,-55.61301 z m 162.5743,61.61282 c 11.4069,9.73107 24.4373,21.46185 36.0473,36.81834 13.2148,17.47911 24.1599,38.12441 26.915,60.72139 2.7549,22.59698 -2.8742,47.08709 -22.2164,71.49219 -12.253,15.46032 -33.4779,28.68313 -59.4924,40.2881 3.4716,-1.28173 8.2099,-2.03314 11.5659,-3.34922 0.026,-0.0118 0.066,-0.0124 0.092,-0.0263 7.9302,-3.16526 15.4565,-6.47224 22.4572,-9.90345 10.4987,-5.14643 19.8707,-10.57446 27.8307,-16.26463 5.3034,-3.78981 9.972,-7.70371 13.9515,-11.71052 1.9905,-2.00551 3.8159,-4.03997 5.4456,-6.09627 9.9575,-12.56404 24.4634,-22.83635 41.9266,-31.42083 1.8715,-42.76222 -30.3897,-79.07483 -64.2153,-104.81667 -14.547,-11.07057 -28.2158,-18.96285 -40.3122,-25.73434 z m 378.30375,95.4675 c -55.00701,0.1566 -121.36318,3.10591 -179.70635,13.44547 -34.5691,6.12628 -66.0859,15.0325 -90.8893,27.13188 -3.0748,1.50176 -6.0056,3.07327 -8.8673,4.67452 -1.63,0.9159 -3.2162,1.84575 -4.771,2.79508 -2.471,1.50111 -4.8827,3.0159 -7.1563,4.60241 -1.9778,1.38977 -3.7961,2.85548 -5.6143,4.31303 -1.8872,1.50189 -3.8601,2.95496 -5.5661,4.53003 -0.2224,0.2066 -0.4317,0.41847 -0.6501,0.62639 -2.7972,2.63598 -5.383,5.37105 -7.6384,8.21666 -14.2643,17.99826 -40.0205,33.01866 -72.2392,45.8784 -16.5079,6.58791 -34.7561,12.59009 -54.0469,18.02365 -9.5351,4.71453 -19.6964,9.06691 -30.216,13.2286 30.3545,6.64331 57.7734,15.28977 81.2749,26.48114 9.0572,-3.48542 17.6209,-7.27628 25.6863,-11.34902 0.1053,-0.0526 0.204,-0.11844 0.3132,-0.16844 5.9939,-3.05761 11.7485,-6.2159 17.0599,-9.61421 4.7514,-3.03984 9.1413,-6.02047 13.4213,-8.98768 l 0.7224,-0.50664 h 0.053 c 34.0496,-23.70133 52.8577,-44.3411 70.4079,-62.07064 19.856,-20.05904 38.3863,-36.44684 74.7932,-48.02287 63.00738,-20.03364 137.18714,-28.91012 196.04344,-32.84258 -6.66845,-0.0658 -5.32157,-0.41189 -12.40942,-0.38557 z m 13.49363,118.28622 c -62.35765,-0.72903 -138.95494,3.18697 -224.40408,17.58993 -46.0346,7.7595 -83.5558,11.62353 -115.8283,13.44546 -4.1189,2.85022 -8.3485,5.72176 -12.9636,8.67449 -1.5739,1.0067 -3.2851,1.92221 -4.9156,2.8914 71.7497,-4.78019 134.2966,-9.56854 185.4893,-17.71033 0.013,-0.002 0.039,0.002 0.053,0 53.24165,-19.74729 125.88911,-23.88806 191.17581,-23.63803 -7.39301,-0.22634 -10.74395,-1.16067 -18.60189,-1.25278 z m -614.68328,8.24075 c -8.0727,0.91327 -16.1944,1.74877 -24.3609,2.48189 5.0426,0.23818 10.0233,0.51322 15.0117,0.79483 3.2673,-1.08698 6.1588,-2.18566 9.3492,-3.27698 z m -157.2733,6.40947 c -19.8911,0.13818 -39.7656,0.59086 -59.6611,0.96328 -12.4667,0.23424 -24.9935,0.34346 -37.3725,0.62639 -32.9715,0.75273 -65.3525,1.55519 -96.8651,2.21685 -2.8757,0.0658 -5.9606,0.15923 -8.819,0.21713 v -0.0921 c -24.7612,0.48953 -49.3115,0.94748 -72.3838,0.98828 -54.5664,0.0921 -79.2418,0.10527 -93.1301,0.55401 13.017,3.38279 32.0258,8.35813 47.5409,16.62612 8.0092,4.26816 15.0648,9.33667 19.6621,15.71035 4.5971,6.37381 6.5329,14.27675 4.024,22.81872 -1.3167,4.48305 -0.7171,6.3892 0.4343,7.54198 1.1515,1.15277 3.9617,2.04617 8.3131,1.92773 8.0433,-0.23029 20.4948,-3.84784 33.3968,-8.60224 5.7425,-2.12881 11.5339,-4.48463 17.2043,-6.91545 0.6606,-0.28293 1.3441,-0.53559 2,-0.81984 6.6209,-2.8739 13.0221,-5.79689 18.7224,-8.50578 v -2.74691 l 3.012,1.37345 c 11.2017,-5.40776 19.8653,-9.93161 19.9031,-9.95161 l 0.053,-0.0263 0.5777,-0.28951 0.7225,-0.0526 c 0,0 9.6826,-0.31056 24.7946,-0.62639 22.583,-0.54612 58.4085,-0.95012 110.5996,0.3132 14.908,0.35925 30.1577,0.81194 46.4568,1.51795 3.9649,0.17239 7.969,0.40662 11.9996,0.6027 16.4535,0.79747 33.3317,1.81062 50.6012,3.06011 3.7607,0.27241 7.3938,0.47506 11.1804,0.77115 3.7735,0.29477 7.5545,0.6435 11.3491,0.96328 9.6466,0.81325 19.3051,1.7156 29.0354,2.69875 3.8227,0.38557 7.618,0.79089 11.4456,1.20541 9.2276,0.99749 18.427,2.08486 27.6377,3.2529 4.2663,0.54085 8.5182,1.03565 12.7708,1.61441 12.5309,1.70731 24.9965,3.55201 37.3004,5.61437 0.3421,0.0526 0.6935,0.10528 1.0356,0.16844 0,0 0.026,0 0.026,0 9.7514,1.64389 19.4974,3.41884 29.2041,5.30118 1.4473,0.28293 2.8688,0.60402 4.3132,0.8909 8.6809,1.7181 17.2959,3.53543 25.8307,5.44553 0.1434,0.0263 0.2908,0.0658 0.4342,0.0921 0.308,0.0658 0.608,0.14739 0.9159,0.21713 9.5012,2.1404 18.8284,4.41554 28.0235,6.79492 5.6142,1.45294 11.2597,2.86745 16.7224,4.40961 l 0.2895,0.0658 0.2645,0.14476 c 0.2988,0.14738 0.5698,0.30925 0.8673,0.45795 3.1901,0.91195 6.5073,1.75679 9.6382,2.69875 5.497,1.64849 10.8877,3.34199 16.1683,5.08418 2.3557,0.78167 4.9216,1.46386 7.2288,2.26501 1.3312,0.4619 2.4683,1.00144 3.783,1.46979 8.1377,2.88364 15.9514,5.87098 23.3729,9.01189 10.7415,4.55767 20.6937,9.35391 29.5896,14.48151 0.9423,0.54349 1.8033,1.1133 2.7229,1.66258 3.5032,2.09591 6.85,4.23736 9.9997,6.43355 1.0857,0.75667 2.1391,1.52045 3.1807,2.2891 2.851,2.10539 5.494,4.28276 7.9998,6.48184 0.9106,0.79879 1.8835,1.57375 2.7468,2.38543 3.1391,2.95299 6.0532,5.95902 8.53,9.08414 v 0.0263 c 0.9698,1.22383 2.2071,2.33265 3.277,3.51806 1.4688,1.62691 2.8314,3.28764 4.4818,4.84323 1.2515,1.18172 2.7215,2.27988 4.0721,3.4216 1.7929,1.51045 3.5081,3.06551 5.4698,4.50582 1.1067,0.81589 2.3595,1.56808 3.518,2.36147 2.5332,1.7285 5.0864,3.43529 7.8553,5.06009 0.812,0.47769 1.699,0.92907 2.5301,1.39754 3.2171,1.80983 6.5067,3.57281 9.9996,5.25289 16.1978,7.80372 35.2004,14.25622 56.071,19.42118 43.469,10.7578 94.59526,16.2333 143.39388,18.7465 28.02607,1.4436 49.77044,0.633 74.38373,0.554 -57.55601,-4.1873 -127.49262,-12.7992 -187.80251,-31.97507 -36.4071,-11.57589 -54.9349,-27.96172 -74.7934,-48.02299 -17.5332,-17.7127 -36.3094,-38.35023 -70.2873,-62.02248 h -0.092 l -0.7225,-0.50664 c -4.2943,-2.97826 -8.6989,-5.9835 -13.4695,-9.03598 h -0.026 c -5.1062,-3.26671 -10.6286,-6.32762 -16.3369,-9.27679 -1.9439,-1.00407 -3.92,-1.99735 -5.9276,-2.96379 -0.066,-0.0263 -0.1329,-0.0395 -0.1921,-0.079 -27.4444,-13.21017 -60.9046,-22.84793 -98.3348,-29.90287 -8.0642,-1.51427 -16.4176,-2.82456 -24.8428,-4.0963 -2.6671,-0.40531 -5.3228,-0.82247 -8.024,-1.20409 -9.1379,-1.28437 -18.4045,-2.48346 -27.9029,-3.51793 -21.1789,-2.30673 -43.2028,-4.02405 -65.8295,-5.27697 -7.7768,-0.43689 -15.6709,-0.76588 -23.5658,-1.10803 -9.7986,-0.40399 -19.6253,-0.80009 -29.5897,-1.06065 -26.5727,-0.76589 -53.6611,-1.03566 -80.9859,-0.96328 -3.9137,0.0132 -7.7903,-0.0263 -11.7105,0 z m 283.4627,10.86726 c -1.5766,0.36583 -3.1622,0.72509 -4.7468,1.08434 0.4567,0.0921 0.9186,0.17502 1.3735,0.26451 1.1528,-0.43558 2.223,-0.91327 3.3733,-1.34925 z m -399.6284,27.73419 c -22.9686,-0.0263 -41.819,0.24082 -54.9625,0.53033 -0.04,10e-4 -0.1474,-10e-4 -0.1934,0 -12.8711,0.28556 -20.267,0.59349 -20.4814,0.6027 -0.1829,0.0921 -4.4151,2.19948 -6.5783,3.27698 -2.2252,1.15409 -4.4535,2.2762 -8.5297,4.28908 34.3721,16.81009 49.053,35.02732 51.5649,38.38458 0.1184,0.15397 0.633,0.68166 0.6987,0.77115 0.012,-10e-4 0.5356,-0.0658 0.5541,-0.0658 0.8817,-0.10528 9.3235,-0.96065 21.1801,-2.07223 5.5906,-0.53822 7.9203,-0.74483 15.9273,-1.39754 4.0427,-0.33162 7.8129,-0.60139 12.4093,-0.93959 9.0919,-0.67113 18.9194,-1.27121 29.8788,-1.87944 5.5162,-0.3053 10.5113,-0.57639 16.4333,-0.84352 13.7301,-0.62245 28.3424,-1.03171 43.758,-1.30148 3.0932,-0.0526 5.6709,-0.22897 8.819,-0.26451 0.7225,-0.008 1.4914,0.007 2.2169,0 2.9935,-0.0263 6.025,0.0103 9.06,0 13.1947,-0.0526 26.6807,0.10528 40.4087,0.48164 3.2468,0.0921 6.3972,0.11844 9.6623,0.24082 3.9939,0.14081 7.9878,0.3461 11.9998,0.53033 5.8849,0.27372 11.7591,0.58955 17.6621,0.96459 5.0029,0.31451 9.9682,0.66719 14.9635,1.06066 4.9044,0.3882 9.7675,0.85668 14.6502,1.32529 5.3667,0.51322 10.706,1.0225 16.0238,1.63849 5.0305,0.58429 9.9688,1.29358 14.9392,1.9759 37.2248,5.11116 72.5672,12.90159 101.9734,24.91503 37.045,15.1341 63.768,35.47001 79.5161,57.90211 15.7481,22.43224 20.4105,47.09684 13.0599,70.02244 -3.3941,10.5857 -10.4176,29.4665 -20.7706,47.3481 -10.353,17.8817 -23.9691,34.9339 -41.3484,41.1556 -38.9936,13.9594 -62.9939,27.4057 -77.1786,37.2521 -4.3549,3.0226 -2.9811,2.614 -5.6144,4.8433 19.2379,-6.8851 65.4396,-24.2366 114.72,-55.589 30.4103,-19.3474 58.4314,-42.5866 74.1669,-68.3838 15.7354,-25.7972 19.5358,-53.7334 1.8553,-84.47984 -14.2861,-24.84331 -35.7564,-45.35003 -63.2516,-62.60083 l -0.092,-0.0526 -0.2408,-0.11844 c -3.9802,-2.48885 -8.0639,-4.92863 -12.2647,-7.30102 -0.053,-0.0263 -0.092,-0.0658 -0.1447,-0.0921 -4.2936,-2.38687 -8.6827,-4.70795 -13.2285,-6.96362 -5.128,-1.44557 -10.4432,-2.80166 -15.7105,-4.16867 -3.1572,-0.81852 -6.2207,-1.69099 -9.4214,-2.48188 -8.5322,-2.10921 -17.2056,-4.11498 -25.9753,-6.0239 0,0 -0.026,0 -0.026,0 -17.555,-3.82099 -35.4893,-7.24602 -53.3961,-10.26481 0,0 -0.026,0 -0.026,0 -3.4291,-0.5777 -6.9574,-1.01723 -10.4094,-1.56624 -10.3564,-1.64771 -20.7252,-3.29672 -31.228,-4.69861 -0.026,-0.003 -0.053,0.003 -0.066,0 -12.2261,-1.63138 -24.5123,-3.03563 -36.7943,-4.36132 -1.818,-0.19608 -3.6285,-0.46058 -5.4457,-0.65008 -13.9818,-1.46123 -27.9451,-2.74376 -41.758,-3.85534 -0.1184,-0.009 -0.2237,-0.0132 -0.3369,-0.0263 -13.7593,-1.1054 -27.3559,-2.04209 -40.7218,-2.84338 -0.1645,-0.01 -0.3171,-0.0132 -0.4816,-0.0263 -13.3044,-0.79483 -26.345,-1.4632 -39.0353,-1.99998 -0.2159,-0.009 -0.4106,-0.0132 -0.6264,-0.0263 -12.6247,-0.53032 -24.8557,-0.93564 -36.6497,-1.25278 -0.026,-7.9e-4 -0.039,6.6e-4 -0.066,0 -23.9228,-0.64087 -45.9152,-0.88958 -65.0344,-0.9159 z m -97.8771,12.14425 c -10.1719,4.8456 -22.4741,10.43812 -35.0111,15.25266 l 10.0238,6.43355 c 0.3066,0.0526 49.037,10.76922 78.7692,16.9634 -0.4409,-0.59744 -1.7917,-2.21922 -3.3976,-4.02391 -0.8132,-0.88037 -1.9934,-1.99301 -3.0361,-3.03617 -1.8129,-1.84351 -3.7734,-3.7752 -6.5058,-6.12022 -0.9712,-0.83037 -2.0067,-1.68494 -3.0842,-2.55426 -1.2423,-1.00012 -2.4972,-2.00735 -3.9036,-3.06011 -1.1976,-0.90143 -2.5714,-1.8447 -3.8795,-2.771 -1.8948,-1.3303 -3.7695,-2.64572 -5.9275,-4.02405 -0.5422,-0.35004 -1.1765,-0.70929 -1.7349,-1.06065 -6.331,-3.94509 -13.6591,-8.0048 -22.3127,-11.99977 z m 605.8162,0.67508 c 1.5819,0.95144 3.2605,1.83747 4.795,2.81917 4.6359,2.96602 8.9126,5.86374 13.084,8.74686 32.2672,1.82246 69.8041,5.68767 115.8284,13.44546 90.29794,15.22069 166.02433,17.27554 230.16286,15.97538 -61.96182,-0.45137 -128.52169,-4.80151 -178.33276,-23.2764 -0.013,-0.002 -0.04,0.002 -0.053,0 -51.1927,-8.14179 -113.741,-12.92948 -185.4893,-17.71047 z m -390.2553,32.48109 c -4.1471,0.0263 -8.2439,0.0395 -12.289,0.0921 -18.4501,0.27635 -36.2375,0.84352 -52.3359,1.61441 -1.2475,0.0658 -2.4116,0.13159 -3.6385,0.19213 -10.834,0.54349 -19.7715,1.17514 -29.0354,1.80719 -27.7112,1.96669 -48.007,4.03866 -51.9022,4.48187 25.057,5.31355 27.6587,5.29841 59.9502,12.9154 81.8286,19.3021 175.201,44.38005 222.6209,68.40786 27.5181,13.94353 50.7601,28.71273 67.5164,45.37243 16.7563,16.6595 27.0433,35.3813 28.1198,56.6733 0.3448,6.8134 -3.1076,14.0638 -8.8673,21.6862 -5.7595,7.6222 -14.0087,15.6214 -23.9753,23.5175 -19.9331,15.7915 -46.835,31.0912 -74.7933,40.9146 -43.3517,15.232 -65.1302,28.5735 -75.9018,37.8062 -4.1655,3.5706 -5.6654,5.8919 -7.1805,8.0963 10.3562,-2.507 82.8903,-20.3575 153.5626,-53.4445 37.9176,-17.752 73.5633,-39.4757 95.0578,-64.0948 10.7471,-12.3096 17.9298,-25.2676 20.385,-38.8183 2.455,-13.5508 0.2645,-27.7678 -8.2167,-43.011 -30.636,-55.06529 -70.8342,-86.5789 -141.7072,-113.87672 -24.4055,-3.90495 -49.8882,-6.61278 -75.4681,-8.24075 -13.7904,-0.87773 -27.5432,-1.38069 -41.1556,-1.73481 -4.5013,-0.10528 -8.8961,-0.15397 -13.325,-0.21714 -9.268,-0.13949 -18.4395,-0.20002 -27.4209,-0.14475 z m 336.5699,14.81893 c 26.1955,11.59839 48.4076,24.46195 60.7212,39.99898 19.3423,24.4051 24.969,48.91928 22.2163,71.51628 -2.7524,22.5968 -13.703,43.2182 -26.9149,60.6973 -11.5944,15.3395 -24.6026,27.0668 -35.999,36.7943 12.0736,-6.7623 25.7254,-14.6181 40.2398,-25.662 33.8603,-25.7642 66.1671,-62.113 64.2393,-104.93722 -17.4875,-8.57592 -32.0627,-18.82915 -42.0229,-31.39674 -14.4079,-18.17934 -45.9397,-33.42345 -82.4798,-47.0109 z"
       id="path3749-4"
       inkscape:connector-curvature="0" /><ellipse
       ry="65.861847"
       rx="75.270691"
       cy="851.1897"
       cx="-2005.7108"
       style="fill:#ffffff;fill-opacity:1;stroke:#6f653d;stroke-width:17.5512;stroke-miterlimit:4;stroke-dasharray:none;stroke-opacity:1"
       id="path2993" /><ellipse
       ry="53.023048"
       rx="54.621494"
       cy="851.37964"
       cx="-2005.7108"
       style="fill:#6f653d;fill-opacity:1;stroke:none;stroke-width:13.1595"
       id="path3013" /><g
       id="g4571"
       style="fill:#ffefc3;fill-opacity:0.798039"
       transform="matrix(17.551169,0,0,17.551169,-4714.9602,-1903.0288)"><text
         id="text2985"
         y="148.54076"
         x="141.01489"
         style="font-style:normal;font-variant:normal;font-weight:normal;font-stretch:normal;line-height:0%;font-family:'League Gothic';-inkscape-font-specification:'League Gothic';letter-spacing:0px;word-spacing:0px;fill:#ffefc3;fill-opacity:0.798039;stroke:none"
         xml:space="preserve"><tspan
           y="148.54076"
           x="141.01489"
           id="tspan2987"
           sodipodi:role="line"
           style="font-size:20px;line-height:1.25;fill:#ffefc3;fill-opacity:0.798039">FLAX</tspan></text><text
         id="text2989"
         y="180.39401"
         x="141.631"
         style="font-style:normal;font-variant:normal;font-weight:normal;font-stretch:normal;line-height:0%;font-family:'League Gothic';-inkscape-font-specification:'League Gothic';letter-spacing:0px;word-spacing:0px;fill:#ffefc3;fill-opacity:0.798039;stroke:none"
         xml:space="preserve"><tspan
           y="180.39401"
           x="141.631"
           id="tspan2991"
           sodipodi:role="line"
           style="font-size:20px;line-height:1.25;fill:#ffefc3;fill-opacity:0.798039">TEAL</tspan></text><g
         style="fill:#ffefc3;fill-opacity:0.798039"
         transform="translate(-1.3676344,2)"
         id="g4185"><path
           style="fill:#ffefc3;fill-opacity:0.798039;stroke:none"
           d="m 169.73905,170.30052 c 5.62051,0.0817 11.20061,-0.36516 16.66794,-2.28729 l 0.18287,2.39213 -16.74494,1.28008 z"
           id="rect4072-7-9"
           inkscape:connector-curvature="0"
           sodipodi:nodetypes="ccccc" /><path
           style="fill:#ffefc3;fill-opacity:0.798039;stroke:none"
           d="m 141.72223,170.40079 c -5.62104,0.0267 -11.19651,-0.4746 -16.64479,-2.45007 l -0.20624,2.39023 16.73163,1.44366 z"
           id="rect4072-7-9-7"
           inkscape:connector-curvature="0"
           sodipodi:nodetypes="ccccc" /></g><g
         style="fill:#ffefc3;fill-opacity:0.798039"
         transform="translate(-0.94563944)"
         id="g4181"><path
           style="fill:#ffefc3;fill-opacity:0.798039;stroke:none"
           d="m 169.31542,141.92843 c 5.62019,-0.1014 11.20182,0.32585 16.67586,2.22878 l 0.17447,-2.39276 -16.74932,-1.22131 z"
           id="rect4072-7-9-9"
           inkscape:connector-curvature="0"
           sodipodi:nodetypes="ccccc" /><path
           style="fill:#ffefc3;fill-opacity:0.798039;stroke:none"
           d="m 141.30244,141.83646 c -5.62085,-0.052 -11.19853,0.42419 -16.65565,2.37511 l -0.19547,-2.39114 16.73796,-1.36831 z"
           id="rect4072-7-9-7-9"
           inkscape:connector-curvature="0"
           sodipodi:nodetypes="ccccc" /></g></g><g
       aria-label="&amp;"
       transform="matrix(26.064054,0,0,16.582857,11604.179,-5342.2048)"
       style="font-style:normal;font-variant:normal;font-weight:normal;font-stretch:normal;font-size:10.9376px;line-height:1.25;font-family:'league gothic';-inkscape-font-specification:'league gothic';letter-spacing:0px;word-spacing:0px;fill:#ffefc3;fill-opacity:0.798039;stroke:none;stroke-width:0.27344"
       id="text574"><path
         d="m -519.75579,373.82099 c -0.0109,0.14219 -0.0437,0.45938 -0.12031,0.80938 -0.0766,0.35001 -0.19688,0.7547 -0.37188,1.1047 0.12031,0.13125 0.21875,0.22969 0.30625,0.28438 0.0875,0.0656 0.58712,0.4242 0.61993,0.43513 l -0.43399,0.94301 c -0.0328,0 -0.0766,-0.0109 -0.15313,-0.0437 -0.14218,-0.0547 -0.35,-0.18594 -0.60156,-0.37188 -0.12032,-0.0875 -0.24063,-0.19688 -0.36095,-0.32813 -0.39375,0.44844 -0.85313,0.74376 -1.34532,0.74376 -0.47032,0 -0.87501,-0.20781 -1.15939,-0.53594 -0.28438,-0.32813 -0.45938,-0.7547 -0.45938,-1.23595 0,-0.90783 0.45938,-1.64065 0.90782,-2.32972 -0.38281,-0.7875 -0.56875,-1.52032 -0.56875,-2.36252 0.0109,-0.65626 0.19687,-1.11564 0.59063,-1.47658 0.19687,-0.18594 0.48125,-0.27344 0.85313,-0.27344 0.74376,0 1.09376,0.4375 1.25783,0.87501 0.18594,0.51407 0.2625,1.20314 -0.15313,1.97971 -0.20781,0.39375 -0.47032,0.79844 -0.78751,1.21407 0.35001,0.79845 0.5797,1.21408 0.78751,1.52033 0.14219,-0.40469 0.21875,-0.94063 0.25157,-1.12657 z m -1.88127,-2.92034 c 0.0109,-0.27344 -0.0328,-0.4922 -0.15313,-0.65626 -0.0547,-0.0766 -0.14218,-0.12031 -0.2625,-0.12031 -0.22969,0 -0.33906,0.19687 -0.38281,0.40469 -0.0547,0.25156 -0.0547,0.64532 0.0438,1.05001 0.0438,0.20781 0.12031,0.42657 0.21875,0.66719 0.2625,-0.40469 0.53594,-0.91876 0.53594,-1.34532 z m 0.14219,5.00942 c -0.29532,-0.47031 -0.59063,-0.95157 -0.9297,-1.57501 -0.12031,0.18594 -0.18594,0.40469 -0.24062,0.71094 -0.0547,0.31719 -0.0656,0.79845 0.13125,1.09376 0.0984,0.15313 0.21875,0.22969 0.37188,0.22969 0.29531,0 0.45938,-0.19687 0.66719,-0.45938 z"
         style="fill:#ffefc3;fill-opacity:0.798039;stroke-width:0.27344"
         id="path576"
         inkscape:connector-curvature="0"
         sodipodi:nodetypes="cccccccccssscccsccccccccscccccccccsc" /></g><path
       style="fill:none;stroke:#b39b53;stroke-width:5;stroke-linecap:butt;stroke-linejoin:miter;stroke-miterlimit:4;stroke-dasharray:none;stroke-opacity:1"
       d="M -1309.548,456.58671 H 2628.7668 V 1040.8704"
       id="path1416"
       sodipodi:nodetypes="ccc" /><path
       style="fill:none;stroke:#ffefc3;stroke-width:2.93262;stroke-linecap:butt;stroke-linejoin:miter;stroke-miterlimit:4;stroke-dasharray:none;stroke-opacity:0.8"
       d="m -2902.719,1091.5842 v 547.9843 h 1720.0913"
       id="path1418" /><text
       xml:space="preserve"
       style="font-style:normal;font-variant:normal;font-weight:normal;font-stretch:normal;font-size:166.882px;line-height:1.25;font-family:'League Spartan';-inkscape-font-specification:'League Spartan';text-align:end;letter-spacing:0px;word-spacing:0px;text-anchor:end;fill:#000000;fill-opacity:1;fill-rule:evenodd;stroke:none;stroke-width:0.123421"
       x="2558.4272"
       y="-1076.6025"
       id="text1209-5-3"><tspan
         sodipodi:role="line"
         x="2558.4272"
         y="-1076.6025"
         style="font-style:normal;font-variant:normal;font-weight:normal;font-stretch:normal;font-family:'League Spartan';-inkscape-font-specification:'League Spartan';text-align:end;text-anchor:end;fill:#ffffff;stroke-width:0.123421"
         id="tspan1211-2-6">ARCHES VIRTUAL DEVELOPER MEETUP</tspan><tspan
         sodipodi:role="line"
         x="2558.4272"
         y="-868.00006"
         style="font-style:normal;font-variant:normal;font-weight:bold;font-stretch:normal;font-family:'League Spartan';-inkscape-font-specification:'League Spartan';text-align:end;text-anchor:end;fill:#ffffff;stroke-width:0.123421"
         id="tspan2326">Online, 2024/10</tspan></text><path
       style="fill:none;fill-rule:evenodd;stroke:#b39b53;stroke-width:5;stroke-linecap:butt;stroke-linejoin:miter;stroke-miterlimit:4;stroke-dasharray:none;stroke-opacity:1"
       d="M -1321.3379,-774.36474 H 2616.9769 V -1358.6484"
       id="path1416-7"
       sodipodi:nodetypes="ccc" /><text
       xml:space="preserve"
       style="font-style:normal;font-variant:normal;font-weight:normal;font-stretch:normal;font-size:143.969px;line-height:1.25;font-family:'League Spartan';-inkscape-font-specification:'League Spartan';text-align:end;letter-spacing:0px;word-spacing:0px;text-anchor:end;fill:#000000;fill-opacity:1;fill-rule:evenodd;stroke:none;stroke-width:0.123421"
       x="2612.9558"
       y="394.20963"
       id="text1209-5-36-5"><tspan
         sodipodi:role="line"
         x="2612.9558"
         y="394.20963"
         style="font-style:normal;font-variant:normal;font-weight:bold;font-stretch:normal;font-family:'League Spartan';-inkscape-font-specification:'League Spartan';text-align:end;text-anchor:end;fill:#ffffff;stroke-width:0.123421"
         id="tspan1211-2-7-3">STUART MARSHALL &amp; PHIL WEIR</tspan></text></g></svg>
